<?xml version="1.0" encoding="utf-8"?>
<!-- Generator: Adobe Illustrator 23.1.1, SVG Export Plug-In . SVG Version: 6.00 Build 0)  -->
<svg version="1.1" id="Laag_1" xmlns="http://www.w3.org/2000/svg" xmlns:xlink="http://www.w3.org/1999/xlink" x="0px" y="0px"
	 viewBox="0 0 200 200" style="enable-background:new 0 0 200 200;" xml:space="preserve">
<style type="text/css">
	.st0{clip-path:url(#SVGID_2_);fill:#FFCE00;}
	.st1{clip-path:url(#SVGID_2_);fill:#252729;}
</style>
<g>
	<defs>
		<rect id="SVGID_1_" x="0.1" y="0" width="200" height="200"/>
	</defs>
	<clipPath id="SVGID_2_">
		<use xlink:href="#SVGID_1_"  style="overflow:visible;"/>
	</clipPath>
	<path class="st0" d="M100.1,200c55.2,0,100-44.8,100-100S155.3,0,100.1,0S0.1,44.8,0.1,100S44.9,200,100.1,200"/>
	<path class="st1" d="M132.9,107.4h-2.7v18c0,1.3-1.1,2.4-2.4,2.4h-9c-1.2,0-2-0.9-2-2v-9.2c0-1.7-1.5-3.2-3.2-3.2h-4.5
		c-1.7,0-3.2,1.5-3.2,3.2v9.2c0,1.2-0.9,2-2,2h-9.2c-1.3,0-2.4-1.1-2.4-2.4v-18h-2.7c-2.8,0-4.2-3.4-2.3-5.3L109,80.3
		c1.2-1.2,3.2-1.2,4.4,0l21.6,21.6C137.1,103.9,135.7,107.4,132.9,107.4 M92.9,48h36.6v14.2H92.9V48z M151.3,62.2h-13.5V48h13.5
		c2.3,0,4.1-1.9,4.1-4.1c0-2.3-1.9-4.1-4.1-4.1H48.9c-2.3,0-4.1,1.9-4.1,4.1v117.8c0,2.3,1.9,4.1,4.1,4.1c2.3,0,4.1-1.9,4.1-4.1V48
		h31.7v14.2H71.3c-2.3,0-4.1,1.9-4.1,4.1v75.1c0,2.3,1.9,4.1,4.1,4.1h80c2.3,0,4.1-1.9,4.1-4.1V66.4
		C155.3,64.1,153.6,62.2,151.3,62.2"/>
</g>
</svg>
